<svg xmlns="http://www.w3.org/2000/svg" class="bi bi-chevron-double-right" fill="currentColor" viewBox="0 0 16 16" width="1em" height="1em">
  <path fill-rule="evenodd" d="M 3.646 1.646 a 0.5 0.5 0 0 1 0.708 0 l 6 6 a 0.5 0.5 0 0 1 0 0.708 l -6 6 a 0.5 0.5 0 0 1 -0.708 -0.708 L 9.293 8 L 3.646 2.354 a 0.5 0.5 0 0 1 0 -0.708 Z"/>
  <path fill-rule="evenodd" d="M 7.646 1.646 a 0.5 0.5 0 0 1 0.708 0 l 6 6 a 0.5 0.5 0 0 1 0 0.708 l -6 6 a 0.5 0.5 0 0 1 -0.708 -0.708 L 13.293 8 L 7.646 2.354 a 0.5 0.5 0 0 1 0 -0.708 Z"/>
</svg>