<svg xmlns="http://www.w3.org/2000/svg" class="bi bi-chevron-double-left" fill="currentColor" viewBox="0 0 16 16" width="1em" height="1em">
  <path fill-rule="evenodd" d="M 8.354 1.646 a 0.5 0.5 0 0 1 0 0.708 L 2.707 8 l 5.647 5.646 a 0.5 0.5 0 0 1 -0.708 0.708 l -6 -6 a 0.5 0.5 0 0 1 0 -0.708 l 6 -6 a 0.5 0.5 0 0 1 0.708 0 Z"/>
  <path fill-rule="evenodd" d="M 12.354 1.646 a 0.5 0.5 0 0 1 0 0.708 L 6.707 8 l 5.647 5.646 a 0.5 0.5 0 0 1 -0.708 0.708 l -6 -6 a 0.5 0.5 0 0 1 0 -0.708 l 6 -6 a 0.5 0.5 0 0 1 0.708 0 Z"/>
</svg>